<?xml version="1.0" standalone="no"?><!DOCTYPE svg PUBLIC "-//W3C//DTD SVG 1.1//EN" "http://www.w3.org/Graphics/SVG/1.1/DTD/svg11.dtd"><svg t="1750333582425" class="icon" viewBox="0 0 1024 1024" version="1.1" xmlns="http://www.w3.org/2000/svg" p-id="16832" xmlns:xlink="http://www.w3.org/1999/xlink" width="64" height="64"><path d="M179.024 992a119.072 119.072 0 0 1-79.792-36.208c-44.336-42.848-67.2-117.472-67.2-221.648a36.944 36.944 0 0 1 73.888 0c0 108.608 28.08 152.192 44.336 168.448a50.864 50.864 0 0 0 27.328 15.52 37.104 37.104 0 0 1 38.4 35.456 37.568 37.568 0 0 1-35.456 38.4z" fill="#707070" p-id="16833"></path><path d="M261.776 992h-83.488a36.944 36.944 0 0 1 0-73.888h83.488a36.944 36.944 0 1 1 0 73.888z" fill="#707070" p-id="16834"></path><path d="M674.768 992a36.576 36.576 0 0 1-36.944-36.944V771.84H68.944a36.944 36.944 0 1 1 0-73.888h605.824a36.576 36.576 0 0 1 36.944 36.944v220.16A37.056 37.056 0 0 1 674.768 992z" fill="#707070" p-id="16835"></path><path d="M812.032 992H516.24a37.216 37.216 0 0 1 0-74.416h295.792a105.6 105.6 0 0 0 105.6-105.6V106.416H299.168v626.608a37.168 37.168 0 1 1-74.336 0V69.216A36.8 36.8 0 0 1 262 32h692.8a36.8 36.8 0 0 1 37.168 37.216v742.704A179.2 179.2 0 0 1 812.032 992z" fill="#707070" p-id="16836"></path><path d="M818.368 319.6H417.2a36.944 36.944 0 0 1 0-73.888h401.184a36.944 36.944 0 1 1 0 73.888z" fill="#707070" p-id="16837"></path><path d="M818.368 484.912H417.2a36.944 36.944 0 0 1 0-73.888h401.184a36.944 36.944 0 1 1 0 73.888z" fill="#707070" p-id="16838"></path></svg>