<?xml version="1.0" standalone="no"?><!DOCTYPE svg PUBLIC "-//W3C//DTD SVG 1.1//EN" "http://www.w3.org/Graphics/SVG/1.1/DTD/svg11.dtd"><svg t="1750171199934" class="icon" viewBox="0 0 1024 1024" version="1.1" xmlns="http://www.w3.org/2000/svg" p-id="17807" xmlns:xlink="http://www.w3.org/1999/xlink" width="200" height="200"><path d="M512 1024C229.180952 1024 0 794.819048 0 512S229.180952 0 512 0 1024 229.180952 1024 512 794.819048 1024 512 1024z m0-950.857143c-243.809524 0-438.857143 195.047619-438.857143 438.857143s195.047619 438.857143 438.857143 438.857143 438.857143-195.047619 438.857143-438.857143-195.047619-438.857143-438.857143-438.857143z" p-id="17808" fill="#ffffff"></path><path d="M277.942857 512m-58.514286 0a58.514286 58.514286 0 1 0 117.028572 0 58.514286 58.514286 0 1 0-117.028572 0Z" p-id="17809" fill="#ffffff"></path><path d="M512 512m-58.514286 0a58.514286 58.514286 0 1 0 117.028572 0 58.514286 58.514286 0 1 0-117.028572 0Z" p-id="17810" fill="#ffffff"></path><path d="M746.057143 512m-58.514286 0a58.514286 58.514286 0 1 0 117.028572 0 58.514286 58.514286 0 1 0-117.028572 0Z" p-id="17811" fill="#ffffff"></path></svg>